<?xml version="1.0" encoding="UTF-8" standalone="no"?>
<!DOCTYPE svg PUBLIC "-//W3C//DTD SVG 1.1//EN" "http://www.w3.org/Graphics/SVG/1.1/DTD/svg11.dtd">
<svg width="100%" height="100%" viewBox="0 0 294 294" version="1.1" xmlns="http://www.w3.org/2000/svg" xmlns:xlink="http://www.w3.org/1999/xlink" xml:space="preserve" xmlns:serif="http://www.serif.com/" style="fill-rule:evenodd;clip-rule:evenodd;stroke-linejoin:round;stroke-miterlimit:2;">
    <g transform="matrix(1,0,0,1,-1105,-2915)">
        <g transform="matrix(1,0,0,1,2999,-0.674125)">
            <g transform="matrix(1,0,0,1,-23,0)">
                <g transform="matrix(1,0,0,1,-2372,-12.3259)">
                    <circle cx="648" cy="3075" r="147" style="fill:rgb(68,116,14);"/>
                    <clipPath id="_clip1">
                        <circle cx="648" cy="3075" r="147"/>
                    </clipPath>
                    <g clip-path="url(#_clip1)">
                        <g transform="matrix(1,0,0,1,-629,-3)">
                            <rect x="1272" y="2825" width="203" height="619" style="fill:rgb(68,116,14);"/>
                        </g>
                    </g>
                </g>
                <g transform="matrix(0.392925,0,0,0.390397,-1920.84,2909.83)">
                    <path d="M412,259C412,259 428.025,242.975 441.931,229.069C447.241,223.759 450.228,216.535 450.228,209C450.228,201.465 447.241,194.241 441.931,188.931C436.427,183.427 430.462,177.462 424.964,171.964C413.917,160.917 396.083,160.917 385.036,171.964C364.712,192.288 332.942,224.058 309.472,247.528C289.968,267.032 279,293.561 279,321.234C279,323.51 279,325.815 279,328.132C279,338.193 285.013,347.266 294.242,351.131C303.472,354.997 314.105,352.895 321.197,345.803C340.438,326.562 359,308 359,308L444,393L386,451C386,451 386.764,455.034 348.031,457.225C318.768,459.076 292.568,476.114 278.866,502.205C330,458 296.886,470.089 279.816,500.746C276.238,507.18 276.929,515.161 281.559,520.874C286.189,526.587 293.818,528.872 300.799,526.638C342.99,513.036 372.55,545.806 349.209,577.626C343.518,585.624 343.545,596.388 349.275,604.357C355.005,612.327 365.156,615.717 374.483,612.776C327.031,617.354 350.999,619.756 372.8,613.311C403.017,604.522 423.829,576.693 423.861,545.035C423.996,529.75 427.703,504.666 448,484C479.579,451.847 492,440 492,440C492,440 607.028,555.028 658.551,606.551C672.079,620.079 693.921,620.079 707.449,606.551C707.451,606.549 707.453,606.547 707.455,606.545C713.95,600.05 717.602,591.215 717.602,582C717.602,572.785 713.95,563.95 707.455,557.455C655.885,505.885 541,391 541,391C541,391 601.062,328.819 610,324C618.938,319.181 621.858,317.924 638,317C654.142,316.076 680.192,316.472 692,304C703.808,291.528 727.804,269.187 732,238C732,238 733.099,227.518 724,229C714.901,230.482 691.453,250.052 679,250C667.074,249.951 657.105,248.31 649.055,229.581C648.208,227.617 647.283,225.688 646.281,223.798C643.28,218.381 639.06,206.464 647.963,195.048C647.984,195.02 648.004,194.992 648.024,194.964C648.443,194.385 654.085,186.848 669,181C684.521,174.914 699.34,161.083 687,160C687,160 656.334,151.006 634,156C611.666,160.994 580.89,177.66 578,202C575.11,226.34 580.287,265.506 553,284C525.713,302.494 495,342 495,342L412,259Z" style="fill:white;"/>
                    <clipPath id="_clip2">
                        <path d="M412,259C412,259 428.025,242.975 441.931,229.069C447.241,223.759 450.228,216.535 450.228,209C450.228,201.465 447.241,194.241 441.931,188.931C436.427,183.427 430.462,177.462 424.964,171.964C413.917,160.917 396.083,160.917 385.036,171.964C364.712,192.288 332.942,224.058 309.472,247.528C289.968,267.032 279,293.561 279,321.234C279,323.51 279,325.815 279,328.132C279,338.193 285.013,347.266 294.242,351.131C303.472,354.997 314.105,352.895 321.197,345.803C340.438,326.562 359,308 359,308L444,393L386,451C386,451 386.764,455.034 348.031,457.225C318.768,459.076 292.568,476.114 278.866,502.205C330,458 296.886,470.089 279.816,500.746C276.238,507.18 276.929,515.161 281.559,520.874C286.189,526.587 293.818,528.872 300.799,526.638C342.99,513.036 372.55,545.806 349.209,577.626C343.518,585.624 343.545,596.388 349.275,604.357C355.005,612.327 365.156,615.717 374.483,612.776C327.031,617.354 350.999,619.756 372.8,613.311C403.017,604.522 423.829,576.693 423.861,545.035C423.996,529.75 427.703,504.666 448,484C479.579,451.847 492,440 492,440C492,440 607.028,555.028 658.551,606.551C672.079,620.079 693.921,620.079 707.449,606.551C707.451,606.549 707.453,606.547 707.455,606.545C713.95,600.05 717.602,591.215 717.602,582C717.602,572.785 713.95,563.95 707.455,557.455C655.885,505.885 541,391 541,391C541,391 601.062,328.819 610,324C618.938,319.181 621.858,317.924 638,317C654.142,316.076 680.192,316.472 692,304C703.808,291.528 727.804,269.187 732,238C732,238 733.099,227.518 724,229C714.901,230.482 691.453,250.052 679,250C667.074,249.951 657.105,248.31 649.055,229.581C648.208,227.617 647.283,225.688 646.281,223.798C643.28,218.381 639.06,206.464 647.963,195.048C647.984,195.02 648.004,194.992 648.024,194.964C648.443,194.385 654.085,186.848 669,181C684.521,174.914 699.34,161.083 687,160C687,160 656.334,151.006 634,156C611.666,160.994 580.89,177.66 578,202C575.11,226.34 580.287,265.506 553,284C525.713,302.494 495,342 495,342L412,259Z"/>
                    </clipPath>
                    <g clip-path="url(#_clip2)">
                        <g transform="matrix(2.54501,0,0,2.5615,-2749.01,-7492.79)">
                            <rect x="1272" y="2825" width="203" height="619" style="fill:rgb(255,255,255);"/>
                        </g>
                    </g>
                </g>
            </g>
        </g>
    </g>
</svg>
