<?xml version="1.0" encoding="UTF-8" standalone="no"?>
<!DOCTYPE svg PUBLIC "-//W3C//DTD SVG 1.1//EN" "http://www.w3.org/Graphics/SVG/1.1/DTD/svg11.dtd">
<svg width="100%" height="100%" viewBox="0 0 294 294" version="1.1" xmlns="http://www.w3.org/2000/svg" xmlns:xlink="http://www.w3.org/1999/xlink" xml:space="preserve" xmlns:serif="http://www.serif.com/" style="fill-rule:evenodd;clip-rule:evenodd;stroke-linejoin:round;stroke-miterlimit:2;">
    <g transform="matrix(1,0,0,1,-1618,-2426)">
        <g transform="matrix(1,0,0,1,2999,-0.674125)">
            <g id="warning" transform="matrix(0.620343,0,0,0.620343,-1234,2573.67)">
                <g transform="matrix(1,0,0,1,-236.965,-236.965)">
                    <clipPath id="_clip1">
                        <rect x="0" y="0" width="473.931" height="473.931"/>
                    </clipPath>
                    <g clip-path="url(#_clip1)">
                        <circle cx="236.966" cy="236.966" r="236.966" style="fill:rgb(226,0,0);"/>
                        <clipPath id="_clip2">
                            <circle cx="236.966" cy="236.966" r="236.966"/>
                        </clipPath>
                        <g clip-path="url(#_clip2)">
                            <g transform="matrix(1,0,0,1,15.4605,0)">
                                <rect x="221.505" y="-26" width="252.427" height="541" style="fill:rgb(226,0,0);"/>
                            </g>
                        </g>
                        <g transform="matrix(1.95318,0,0,1.95318,-226.73,-218.821)">
                            <path d="M225.819,242.111L222.448,191.672C221.816,181.842 221.505,174.785 221.505,170.505C221.505,164.679 223.032,160.133 226.081,156.87C229.134,153.596 233.16,151.968 238.141,151.968C244.18,151.968 248.221,154.056 250.253,158.232C252.285,162.412 253.306,168.436 253.306,176.29C253.306,180.926 253.059,185.637 252.573,190.4L248.042,242.317C247.552,248.498 246.5,253.235 244.88,256.539C243.264,259.835 240.592,261.482 236.876,261.482C233.082,261.482 230.451,259.892 228.981,256.693C227.503,253.504 226.448,248.64 225.819,242.111ZM237.508,311.401C233.224,311.401 229.482,310.02 226.294,307.248C223.099,304.479 221.505,300.599 221.505,295.615C221.505,291.26 223.032,287.555 226.081,284.498C229.134,281.445 232.876,279.918 237.299,279.918C241.725,279.918 245.49,281.441 248.618,284.498C251.742,287.551 253.306,291.259 253.306,295.615C253.306,300.528 251.727,304.386 248.561,307.196C245.403,309.997 241.721,311.401 237.508,311.401Z" style="fill:white;fill-rule:nonzero;stroke:white;stroke-width:4.35px;"/>
                        </g>
                    </g>
                </g>
            </g>
        </g>
    </g>
</svg>
