<?xml version="1.0" encoding="UTF-8" standalone="no"?>
<!DOCTYPE svg PUBLIC "-//W3C//DTD SVG 1.1//EN" "http://www.w3.org/Graphics/SVG/1.1/DTD/svg11.dtd">
<svg width="100%" height="100%" viewBox="0 0 294 294" version="1.1" xmlns="http://www.w3.org/2000/svg" xmlns:xlink="http://www.w3.org/1999/xlink" xml:space="preserve" xmlns:serif="http://www.serif.com/" style="fill-rule:evenodd;clip-rule:evenodd;stroke-linejoin:round;stroke-miterlimit:2;">
    <g transform="matrix(1,0,0,1,-251,-2426)">
        <g transform="matrix(1,0,0,1,2999,-0.674125)">
            <g transform="matrix(1,0,0,1,-877,-489)">
                <g transform="matrix(1,0,0,1,-2372,-12.3259)">
                    <circle cx="648" cy="3075" r="147" style="fill:rgb(0,109,255);"/>
                    <clipPath id="_clip1">
                        <circle cx="648" cy="3075" r="147"/>
                    </clipPath>
                    <g clip-path="url(#_clip1)">
                        <g transform="matrix(1,0,0,1,-629,-3)">
                            <rect x="1272" y="2825" width="203" height="619" style="fill:rgb(0,109,255);"/>
                        </g>
                    </g>
                </g>
                <g transform="matrix(0.625876,0,0,0.564669,-2049,2844.5)">
                    <path d="M528.8,244.7L423.4,244.7L423.4,551L488.7,551L488.7,444.3L522.3,444.3C556.8,445.1 585.6,436 608.6,417.1C631.6,398.2 643.1,373 643.1,341.6C643.1,277 605,244.7 528.8,244.7ZM516.9,394.2L488.6,394.2L488.6,295.3L517.5,295.3C555.5,295.3 574.5,311.6 574.5,344.1C574.5,377.6 555.3,394.2 516.9,394.2Z" style="fill:white;fill-rule:nonzero;"/>
                    <clipPath id="_clip2">
                        <path d="M528.8,244.7L423.4,244.7L423.4,551L488.7,551L488.7,444.3L522.3,444.3C556.8,445.1 585.6,436 608.6,417.1C631.6,398.2 643.1,373 643.1,341.6C643.1,277 605,244.7 528.8,244.7ZM516.9,394.2L488.6,394.2L488.6,295.3L517.5,295.3C555.5,295.3 574.5,311.6 574.5,344.1C574.5,377.6 555.3,394.2 516.9,394.2Z" clip-rule="nonzero"/>
                    </clipPath>
                    <g clip-path="url(#_clip2)">
                        <g transform="matrix(1.59776,0,0,1.77095,-388.262,-5016.79)">
                            <rect x="563" y="2825" width="239" height="616" style="fill:rgb(255,255,255);"/>
                        </g>
                    </g>
                </g>
            </g>
        </g>
    </g>
</svg>
