<?xml version="1.0" encoding="UTF-8" standalone="no"?>
<!DOCTYPE svg PUBLIC "-//W3C//DTD SVG 1.1//EN" "http://www.w3.org/Graphics/SVG/1.1/DTD/svg11.dtd">
<svg width="100%" height="100%" viewBox="0 0 294 294" version="1.1" xmlns="http://www.w3.org/2000/svg" xmlns:xlink="http://www.w3.org/1999/xlink" xml:space="preserve" xmlns:serif="http://www.serif.com/" style="fill-rule:evenodd;clip-rule:evenodd;stroke-linejoin:round;stroke-miterlimit:2;">
    <g transform="matrix(1,0,0,1,-1282,-2426)">
        <g transform="matrix(1,0,0,1,2999,-0.674125)">
            <g transform="matrix(1,0,0,1,154,-489)">
                <g transform="matrix(1,0,0,1,-2372,-12.3259)">
                    <circle cx="648" cy="3075" r="147" style="fill:rgb(0,109,255);"/>
                    <clipPath id="_clip1">
                        <circle cx="648" cy="3075" r="147"/>
                    </clipPath>
                    <g clip-path="url(#_clip1)">
                        <g transform="matrix(1,0,0,1,-629,-3)">
                            <rect x="1272" y="2825" width="203" height="619" style="fill:rgb(0,109,255);"/>
                        </g>
                    </g>
                </g>
                <g id="ruta" transform="matrix(0.357422,0,0,0.34721,-1732.5,3051.56)">
                    <g transform="matrix(1,0,0,1,-256,-256)">
                        <clipPath id="_clip2">
                            <rect x="0" y="0" width="512" height="512"/>
                        </clipPath>
                        <g clip-path="url(#_clip2)">
                            <g>
                                <path d="M64,490.667C60.139,490.667 56.277,489.28 53.205,486.485C51.051,484.501 0,437.312 0,388.011C0,350.507 28.715,320 64,320C99.285,320 128,350.507 128,388.011C128,437.333 76.949,484.501 74.795,486.485C71.723,489.28 67.861,490.667 64,490.667Z" style="fill:white;fill-rule:nonzero;"/>
                                <path d="M333.952,512L64,512C55.168,512 48,504.832 48,496C48,487.168 55.168,480 64,480L333.952,480C336.981,480 338.325,478.144 338.923,476.587C339.52,475.029 339.776,472.747 337.536,470.741L195.648,342.336C184.107,331.925 180.267,315.797 185.856,301.269C191.467,286.72 205.141,277.333 220.715,277.333L405.333,277.333C414.165,277.333 421.333,284.501 421.333,293.333C421.333,302.165 414.165,309.333 405.333,309.333L220.715,309.333C217.685,309.333 216.341,311.189 215.744,312.747C215.147,314.304 214.891,316.587 217.131,318.592L359.019,446.997C370.56,457.408 374.4,473.536 368.811,488.064C363.2,502.613 349.525,512 333.952,512Z" style="fill:white;fill-rule:nonzero;"/>
                                <clipPath id="_clip3">
                                    <path d="M333.952,512L64,512C55.168,512 48,504.832 48,496C48,487.168 55.168,480 64,480L333.952,480C336.981,480 338.325,478.144 338.923,476.587C339.52,475.029 339.776,472.747 337.536,470.741L195.648,342.336C184.107,331.925 180.267,315.797 185.856,301.269C191.467,286.72 205.141,277.333 220.715,277.333L405.333,277.333C414.165,277.333 421.333,284.501 421.333,293.333C421.333,302.165 414.165,309.333 405.333,309.333L220.715,309.333C217.685,309.333 216.341,311.189 215.744,312.747C215.147,314.304 214.891,316.587 217.131,318.592L359.019,446.997C370.56,457.408 374.4,473.536 368.811,488.064C363.2,502.613 349.525,512 333.952,512Z" clip-rule="nonzero"/>
                                </clipPath>
                                <g clip-path="url(#_clip3)">
                                    <g transform="matrix(1.26108,0,0,1,-1337.1,-2844)">
                                        <rect x="1272" y="2825" width="203" height="619" style="fill:rgb(255,255,255);"/>
                                    </g>
                                </g>
                                <path d="M405.333,0C346.517,0 298.667,48.448 298.667,107.989C298.667,190.187 390.997,270.123 394.944,273.493C397.931,276.053 401.621,277.333 405.333,277.333C409.045,277.333 412.736,276.053 415.723,273.493C419.669,270.123 512,190.187 512,107.989C512,48.448 464.149,0 405.333,0ZM405.333,149.333C381.803,149.333 362.667,130.197 362.667,106.667C362.667,83.136 381.803,64 405.333,64C428.864,64 448,83.136 448,106.667C448,130.197 428.864,149.333 405.333,149.333Z" style="fill:white;fill-rule:nonzero;"/>
                                <clipPath id="_clip4">
                                    <path d="M405.333,0C346.517,0 298.667,48.448 298.667,107.989C298.667,190.187 390.997,270.123 394.944,273.493C397.931,276.053 401.621,277.333 405.333,277.333C409.045,277.333 412.736,276.053 415.723,273.493C419.669,270.123 512,190.187 512,107.989C512,48.448 464.149,0 405.333,0ZM405.333,149.333C381.803,149.333 362.667,130.197 362.667,106.667C362.667,83.136 381.803,64 405.333,64C428.864,64 448,83.136 448,106.667C448,130.197 428.864,149.333 405.333,149.333Z" clip-rule="nonzero"/>
                                </clipPath>
                                <g clip-path="url(#_clip4)">
                                    <g transform="matrix(1.26108,0,0,1,-1337.1,-2844)">
                                        <rect x="1272" y="2825" width="203" height="619" style="fill:rgb(255,255,255);"/>
                                    </g>
                                </g>
                            </g>
                        </g>
                    </g>
                </g>
            </g>
        </g>
    </g>
</svg>
