<?xml version="1.0" encoding="UTF-8" standalone="no"?>
<!DOCTYPE svg PUBLIC "-//W3C//DTD SVG 1.1//EN" "http://www.w3.org/Graphics/SVG/1.1/DTD/svg11.dtd">
<svg width="100%" height="100%" viewBox="0 0 261 261" version="1.1" xmlns="http://www.w3.org/2000/svg" xmlns:xlink="http://www.w3.org/1999/xlink" xml:space="preserve" xmlns:serif="http://www.serif.com/" style="fill-rule:evenodd;clip-rule:evenodd;stroke-linejoin:round;stroke-miterlimit:2;">
    <g transform="matrix(1,0,0,1,-659.362,-3056.34)">
        <g transform="matrix(1,0,0,1,2999,-0.674125)">
            <g transform="matrix(0.886488,0,0,0.886488,-477.127,576.907)">
                <g transform="matrix(1,0,0,1,-2602,-130.326)">
                    <circle cx="648" cy="3075" r="147" style="fill:rgb(255,187,34);"/>
                    <clipPath id="_clip1">
                        <circle cx="648" cy="3075" r="147"/>
                    </clipPath>
                    <g clip-path="url(#_clip1)">
                        <g transform="matrix(1,0,0,1,87,16)">
                            <rect x="563" y="2825" width="239" height="616" style="fill:rgb(255,187,34);"/>
                        </g>
                    </g>
                </g>
                <g id="cycling" transform="matrix(0.410156,0,0,0.410156,-1950.5,2944.72)">
                    <g transform="matrix(1,0,0,1,-256,-256)">
                        <g>
                            <path d="M412,285C410.769,285 409.544,285.03 408.323,285.075L390.11,189.004L401,189.004C409.284,189.004 416,182.288 416,174.004C416,165.72 409.284,159.004 401,159.004L340.589,159.004L308.314,131.921L289.652,116.261C292.27,116.737 294.962,116.999 297.716,116.999C322.529,116.999 342.716,96.812 342.716,71.999C342.716,47.186 322.529,26.999 297.716,26.999C272.903,26.999 252.716,47.186 252.716,71.999C252.716,78.625 254.167,84.915 256.75,90.584C238.713,82.077 216.481,86.377 203.073,102.355L164.506,148.318C138.569,179.229 138.469,223.333 161.848,254.231L138.488,292.706C126.634,287.746 113.632,285 100,285C44.86,285 0,329.859 0,385C0,440.141 44.86,485 100,485C150.043,485 191.616,448.05 198.875,400L236,400L236,410C236,418.284 242.716,425 251,425C259.284,425 266,418.284 266,410L266,389.197L344.441,260L373.036,260L378.848,290.656C339.953,304.363 312,341.475 312,385C312,440.141 356.859,485 412,485C467.141,485 512,440.141 512,385C512,329.859 467.141,285 412,285ZM100,455C61.402,455 30,423.598 30,385C30,346.402 61.402,315 100,315C107.928,315 115.544,316.344 122.655,318.784L87.178,377.216C84.366,381.847 84.27,387.635 86.928,392.357C89.586,397.079 94.582,400 100,400L168.365,400C161.477,431.411 133.449,455 100,455ZM126.655,370L148.278,334.385C158.185,343.839 165.329,356.155 168.364,370L126.655,370ZM236,370L198.875,370C195.152,345.354 182.398,323.632 164.107,308.315L183.965,275.607L236,319.27L236,370ZM266,331.391L266,312.275L265.993,312.275C265.993,310.566 265.709,308.837 265.101,307.161L247.998,260L309.345,260L266,331.391ZM242.311,230C243.268,226.743 244.877,223.664 247.121,220.99L296.979,161.571L325.489,185.494C328.3,187.852 331.72,189.004 335.123,189.004L359.578,189.004L367.349,230L242.311,230ZM412,455C373.402,455 342,423.598 342,385C342,356.149 359.548,331.324 384.529,320.623L397.263,387.794C398.627,394.989 404.919,400.003 411.984,400.003C412.911,400.003 413.85,399.916 414.795,399.737C422.935,398.194 428.281,390.345 426.738,382.206L414.007,315.051C451.677,316.119 482,347.075 482,385C482,423.598 450.598,455 412,455Z" style="fill:white;fill-rule:nonzero;"/>
                            <clipPath id="_clip2">
                                <path d="M412,285C410.769,285 409.544,285.03 408.323,285.075L390.11,189.004L401,189.004C409.284,189.004 416,182.288 416,174.004C416,165.72 409.284,159.004 401,159.004L340.589,159.004L308.314,131.921L289.652,116.261C292.27,116.737 294.962,116.999 297.716,116.999C322.529,116.999 342.716,96.812 342.716,71.999C342.716,47.186 322.529,26.999 297.716,26.999C272.903,26.999 252.716,47.186 252.716,71.999C252.716,78.625 254.167,84.915 256.75,90.584C238.713,82.077 216.481,86.377 203.073,102.355L164.506,148.318C138.569,179.229 138.469,223.333 161.848,254.231L138.488,292.706C126.634,287.746 113.632,285 100,285C44.86,285 0,329.859 0,385C0,440.141 44.86,485 100,485C150.043,485 191.616,448.05 198.875,400L236,400L236,410C236,418.284 242.716,425 251,425C259.284,425 266,418.284 266,410L266,389.197L344.441,260L373.036,260L378.848,290.656C339.953,304.363 312,341.475 312,385C312,440.141 356.859,485 412,485C467.141,485 512,440.141 512,385C512,329.859 467.141,285 412,285ZM100,455C61.402,455 30,423.598 30,385C30,346.402 61.402,315 100,315C107.928,315 115.544,316.344 122.655,318.784L87.178,377.216C84.366,381.847 84.27,387.635 86.928,392.357C89.586,397.079 94.582,400 100,400L168.365,400C161.477,431.411 133.449,455 100,455ZM126.655,370L148.278,334.385C158.185,343.839 165.329,356.155 168.364,370L126.655,370ZM236,370L198.875,370C195.152,345.354 182.398,323.632 164.107,308.315L183.965,275.607L236,319.27L236,370ZM266,331.391L266,312.275L265.993,312.275C265.993,310.566 265.709,308.837 265.101,307.161L247.998,260L309.345,260L266,331.391ZM242.311,230C243.268,226.743 244.877,223.664 247.121,220.99L296.979,161.571L325.489,185.494C328.3,187.852 331.72,189.004 335.123,189.004L359.578,189.004L367.349,230L242.311,230ZM412,455C373.402,455 342,423.598 342,385C342,356.149 359.548,331.324 384.529,320.623L397.263,387.794C398.627,394.989 404.919,400.003 411.984,400.003C412.911,400.003 413.85,399.916 414.795,399.737C422.935,398.194 428.281,390.345 426.738,382.206L414.007,315.051C451.677,316.119 482,347.075 482,385C482,423.598 450.598,455 412,455Z" clip-rule="nonzero"/>
                            </clipPath>
                            <g clip-path="url(#_clip2)">
                                <g transform="matrix(1.3286,0,0,1,-101.071,-2.63068)">
                                    <rect x="266" y="-16" width="230" height="552" style="fill:rgb(255,255,255);"/>
                                </g>
                            </g>
                        </g>
                    </g>
                </g>
            </g>
        </g>
    </g>
</svg>
